<svg width="16" height="16" viewBox="0 0 16 16" fill="none" xmlns="http://www.w3.org/2000/svg">
<path fill-rule="evenodd" clip-rule="evenodd" d="M5.01011 0.5H2.73181C1.49817 0.5 0.5 1.50683 0.5 2.74664V5.04472C0.5 6.28402 1.49838 7.29136 2.73181 7.29136H5.01011C6.24353 7.29136 7.24192 6.28402 7.24192 5.04472V2.74664C7.24192 1.50683 6.24375 0.5 5.01011 0.5ZM2.7318 1.54651H5.0101C5.66373 1.54651 6.19539 2.08279 6.19539 2.74664V5.04472C6.19539 5.70813 5.66345 6.24485 5.0101 6.24485H2.7318C2.07845 6.24485 1.5465 5.70813 1.5465 5.04472V2.74664C1.5465 2.08279 2.07817 1.54651 2.7318 1.54651ZM13.2689 0.5H10.9899C9.75626 0.5 8.75809 1.50683 8.75809 2.74664V5.04472C8.75809 6.28402 9.75647 7.29136 10.9899 7.29136H13.2689C14.5018 7.29136 15.5 6.28388 15.5 5.04472V2.74664C15.5 1.50698 14.502 0.5 13.2689 0.5ZM10.9899 1.54651H13.2689C13.9219 1.54651 14.4535 2.08287 14.4535 2.74664V5.04472C14.4535 5.70805 13.9216 6.24485 13.2689 6.24485H10.9899C10.3365 6.24485 9.8046 5.70813 9.8046 5.04472V2.74664C9.8046 2.08279 10.3363 1.54651 10.9899 1.54651ZM2.73181 8.70864H5.01011C6.24389 8.70864 7.24192 9.71562 7.24192 10.956V13.2534C7.24192 14.4932 6.24375 15.5 5.01011 15.5H2.73181C1.49817 15.5 0.5 14.4932 0.5 13.2534V10.956C0.5 9.71562 1.49802 8.70864 2.73181 8.70864ZM5.0101 9.75515H2.7318C2.07809 9.75515 1.5465 10.2915 1.5465 10.956V13.2534C1.5465 13.9172 2.07817 14.4535 2.7318 14.4535H5.0101C5.66373 14.4535 6.19539 13.9172 6.19539 13.2534V10.956C6.19539 10.2915 5.66381 9.75515 5.0101 9.75515ZM13.2689 8.70864H10.9899C9.75612 8.70864 8.75809 9.71562 8.75809 10.956V13.2534C8.75809 14.4932 9.75626 15.5 10.9899 15.5H13.2689C14.502 15.5 15.5 14.493 15.5 13.2534V10.956C15.5 9.71576 14.5021 8.70864 13.2689 8.70864ZM10.9899 9.75515H13.2689C13.922 9.75515 14.4535 10.2916 14.4535 10.956V13.2534C14.4535 13.9171 13.9219 14.4535 13.2689 14.4535H10.9899C10.3363 14.4535 9.8046 13.9172 9.8046 13.2534V10.956C9.8046 10.2915 10.3362 9.75515 10.9899 9.75515Z" fill="#447ABB"/>
</svg>
