{
  "accessors": [
    {
      "bufferView": 2,
      "componentType": 5126,
      "count": 10818,
      "max": [
        10.107192993164062,
        -0.89578056335449219,
        10.042078971862793
      ],
      "min": [
        -12.428558349609375,
        -30.832592010498047,
        -12.270388603210449
      ],
      "type": "VEC3"
    },
    {
      "bufferView": 2,
      "byteOffset": 129816,
      "componentType": 5126,
      "count": 10818,
      "max": [
        0.99995213747024536,
        0.99993640184402466,
        0.99968409538269043
      ],
      "min": [
        -0.99990230798721313,
        -0.99947118759155273,
        -0.99916893243789673
      ],
      "type": "VEC3"
    },
    {
      "bufferView": 3,
      "componentType": 5126,
      "count": 10818,
      "max": [
        1,
        0.99999970197677612,
        0.97234737873077393,
        -1
      ],
      "min": [
        -0.99999892711639404,
        -0.99999868869781494,
        -0.98605519533157349,
        -1
      ],
      "type": "VEC4"
    },
    {
      "bufferView": 3,
      "byteOffset": 173088,
      "componentType": 5126,
      "count": 10818,
      "max": [
        0.74117648601531982,
        0.75686275959014893,
        0.78039216995239258,
        1
      ],
      "min": [
        0.011764706112444401,
        0,
        0,
        1
      ],
      "type": "VEC4"
    },
    {
      "bufferView": 1,
      "componentType": 5126,
      "count": 10818,
      "max": [
        0.99963301420211792,
        0.99987798929214478
      ],
      "min": [
        0.00012199999764561653,
        0.00036599999293684959
      ],
      "type": "VEC2"
    },
    {
      "bufferView": 0,
      "componentType": 5125,
      "count": 30000,
      "max": [
        10817
      ],
      "min": [
        0
      ],
      "type": "SCALAR"
    }
  ],
  "asset": {
    "extras": {
      "author": "Renafox (https://sketchfab.com/kryik1023)",
      "license": "CC-BY-4.0 (http://creativecommons.org/licenses/by/4.0/)",
      "source": "https://sketchfab.com/3d-models/project-cirno-fumo-3d-scan-efd2a7f4dbf048c1a18438db7f86c4b9",
      "title": "東方 Project - Cirno Fumo (3D scan)"
    },
    "generator": "Sketchfab-8.83.0",
    "version": "2.0"
  },
  "bufferViews": [
    {
      "buffer": 0,
      "byteLength": 120000,
      "byteOffset": 0,
      "name": "floatBufferViews",
      "target": 34963
    },
    {
      "buffer": 0,
      "byteLength": 86544,
      "byteOffset": 120000,
      "byteStride": 8,
      "name": "floatBufferViews",
      "target": 34962
    },
    {
      "buffer": 0,
      "byteLength": 259632,
      "byteOffset": 206544,
      "byteStride": 12,
      "name": "floatBufferViews",
      "target": 34962
    },
    {
      "buffer": 0,
      "byteLength": 346176,
      "byteOffset": 466176,
      "byteStride": 16,
      "name": "floatBufferViews",
      "target": 34962
    }
  ],
  "buffers": [
    {
      "byteLength": 812352,
      "uri": "scene.bin"
    }
  ],
  "images": [
    {
      "uri": "textures/cirno_low_Material_u1_v1_baseColor.jpeg"
    },
    {
      "uri": "textures/cirno_low_Material_u1_v1_metallicRoughness.png"
    },
    {
      "uri": "textures/cirno_low_Material_u1_v1_normal.png"
    }
  ],
  "materials": [
    {
      "doubleSided": true,
      "emissiveFactor": [
        1,
        1,
        1
      ],
      "emissiveTexture": {
        "index": 0,
        "texCoord": 0
      },
      "name": "cirno_low_Material_u1_v1",
      "normalTexture": {
        "index": 2,
        "scale": 1,
        "texCoord": 0
      },
      "occlusionTexture": {
        "index": 1,
        "strength": 1,
        "texCoord": 0
      },
      "pbrMetallicRoughness": {
        "baseColorFactor": [
          1,
          1,
          1,
          1
        ],
        "baseColorTexture": {
          "index": 0,
          "texCoord": 0
        },
        "metallicFactor": 0,
        "metallicRoughnessTexture": {
          "index": 1,
          "texCoord": 0
        },
        "roughnessFactor": 0
      }
    }
  ],
  "meshes": [
    {
      "primitives": [
        {
          "attributes": {
            "COLOR_0": 3,
            "NORMAL": 1,
            "POSITION": 0,
            "TANGENT": 2,
            "TEXCOORD_0": 4
          },
          "indices": 5,
          "material": 0,
          "mode": 4
        }
      ]
    }
  ],
  "nodes": [
    {
      "children": [
        1
      ],
      "name": "RootNode (gltf orientation matrix)",
      "rotation": [
        -0.70710678118654746,
        -0,
        -0,
        0.70710678118654757
      ]
    },
    {
      "children": [
        2
      ],
      "matrix": [
        1,
        0,
        0,
        0,
        0,
        2.2204460492503131e-16,
        -1,
        0,
        0,
        1,
        2.2204460492503131e-16,
        0,
        0,
        -14.75007152557373,
        -16.978366851806641,
        1
      ],
      "name": "RootNode (model correction matrix)"
    },
    {
      "children": [
        3
      ],
      "name": "cirno_low.obj.cleaner.materialmerger.gles"
    },
    {
      "mesh": 0,
      "name": ""
    }
  ],
  "samplers": [
    {
      "magFilter": 9729,
      "minFilter": 9987,
      "wrapS": 10497,
      "wrapT": 10497
    }
  ],
  "scene": 0,
  "scenes": [
    {
      "name": "OSG_Scene",
      "nodes": [
        0
      ]
    }
  ],
  "textures": [
    {
      "sampler": 0,
      "source": 0
    },
    {
      "sampler": 0,
      "source": 1
    },
    {
      "sampler": 0,
      "source": 2
    }
  ]
}

